<svg width="500" height="500" viewBox="0 0 500 500" fill="none" xmlns="http://www.w3.org/2000/svg">
<path d="M367.841 25C348.542 37.0142 150.254 168.218 142.591 231.793C135.071 293.816 238.376 259.626 199.306 340.221C174.851 382.771 130.34 422.093 95.2549 455.703C74.3693 475.71 61.7739 474.994 49.3744 474.997C36.975 475.001 24.0051 460.375 24.0052 442.947C24.0053 425.52 24.0018 79.6544 24.0042 77.1648C24.0066 74.6752 23.4302 53.2821 34.9094 40.0838C46.3886 26.8855 59.821 25 68.7729 25C137.31 25.0001 282.986 25.0001 367.841 25C480.202 24.9999 339.233 25.0002 367.841 25Z" fill="#07778F"/>
<path d="M133.159 475C152.458 462.986 350.746 331.782 358.409 268.207C365.929 206.184 262.624 240.374 301.694 159.779C326.149 117.229 370.66 77.9069 405.745 44.2971C426.631 24.2897 439.226 25.0058 451.626 25.0026C464.025 24.9994 476.995 39.6252 476.995 57.0526C476.995 74.4798 476.998 420.346 476.996 422.835C476.993 425.325 477.57 446.718 466.091 459.916C454.611 473.115 441.179 475 432.227 475C363.69 475 218.014 475 133.159 475C20.798 475 161.767 475 133.159 475Z" fill="#DB572F"/>
</svg>
